# xmcd
#
# Track frame offsets:
#	150
#	16104
#	34983
#	47884
#	58596
#	76963
#	90615
#	108724
#	124686
#	136378
#	151713
#
# Disc length: 2273 seconds
# Revision: 2
# Processed by: cddbd v1.5.2PL0 Copyright (c) Steve Scherf et al.
# Submitted via: dBpowerAMP V12.0
#
DISCID=8708df0b
DTITLE=Garth Brooks - Blame It All On My Roots - Blue-Eyed Soul
DYEAR=2013
DGENRE=Country
TTITLE0=I Heard It Through the Grapevine
TTITLE1=Midnight Train To Georgia
TTITLE2=Hold On, I'm Coming
TTITLE3=Ain't No Sunshine
TTITLE4=Drift Away
TTITLE5=Stand By Me
TTITLE6=Shout
TTITLE7=I Never Loved Someone the Way I Love You
TTITLE8=Sitting On the Dock of the Bay
TTITLE9=Lean On Me
TTITLE10=What'd I Say
EXTD=
EXTT0=
EXTT1=
EXTT2=
EXTT3=
EXTT4=
EXTT5=
EXTT6=
EXTT7=
EXTT8=
EXTT9=
EXTT10=
PLAYORDER=
